<?xml version="1.0" encoding="UTF-8" standalone="no"?>
<!-- Created with Inkscape (http://www.inkscape.org/) -->

<svg
   width="6.6368895mm"
   height="6.5718284mm"
   viewBox="0 0 6.6368895 6.5718284"
   version="1.1"
   id="svg969"
   sodipodi:docname="star.svg"
   inkscape:version="1.2.2 (b0a8486, 2022-12-01)"
   xmlns:inkscape="http://www.inkscape.org/namespaces/inkscape"
   xmlns:sodipodi="http://sodipodi.sourceforge.net/DTD/sodipodi-0.dtd"
   xmlns="http://www.w3.org/2000/svg"
   xmlns:svg="http://www.w3.org/2000/svg">
  <sodipodi:namedview
     id="namedview971"
     pagecolor="#ffffff"
     bordercolor="#000000"
     borderopacity="0.25"
     inkscape:showpageshadow="2"
     inkscape:pageopacity="0"
     inkscape:pagecheckerboard="true"
     inkscape:deskcolor="#d1d1d1"
     inkscape:document-units="mm"
     showgrid="false"
     inkscape:zoom="17.8011"
     inkscape:cx="-3.1177849"
     inkscape:cy="13.735106"
     inkscape:window-width="1792"
     inkscape:window-height="849"
     inkscape:window-x="0"
     inkscape:window-y="25"
     inkscape:window-maximized="0"
     inkscape:current-layer="svg969" />
  <defs
     id="defs966" />
  <path
     style="color:#000000;fill:#000000;fill-opacity:0;stroke-width:0.217894;stroke-linecap:round;stroke-linejoin:round;-inkscape-stroke:none"
     d="M 2.116942,4.484329 1.790102,4.81117"
     id="path347" />
  <path
     style="color:#000000;fill:#000000;stroke-width:1.08947e-06;stroke-linecap:round;stroke-linejoin:round;-inkscape-stroke:none"
     d="m 2.116942,4.375382 a 0.10894681,0.10894681 0 0 0 -0.07704,0.03191 l -0.32684,0.32684 a 0.10894681,0.10894681 0 0 0 0,0.154075 0.10894681,0.10894681 0 0 0 0.154074,0 l 0.326841,-0.32684 a 0.10894681,0.10894681 0 0 0 0,-0.154075 0.10894681,0.10894681 0 0 0 -0.07704,-0.03191 z"
     id="path349" />
  <path
     style="color:#000000;fill:#000000;fill-opacity:0;stroke-width:0.217894;stroke-linecap:round;stroke-linejoin:round;-inkscape-stroke:none"
     d="M 4.513772,2.087499 4.840613,1.760659"
     id="path341" />
  <path
     style="color:#000000;fill:#000000;stroke-width:1.08947e-06;stroke-linecap:round;stroke-linejoin:round;-inkscape-stroke:none"
     d="m 4.840613,1.651712 a 0.10894681,0.10894681 0 0 0 -0.07704,0.03191 l -0.32684,0.32684 a 0.10894681,0.10894681 0 0 0 0,0.154075 0.10894681,0.10894681 0 0 0 0.154075,0 l 0.32684,-0.326841 a 0.10894681,0.10894681 0 0 0 0,-0.154074 0.10894681,0.10894681 0 0 0 -0.07704,-0.03191 z"
     id="path343" />
  <path
     style="color:#000000;fill:#000000;fill-opacity:0;stroke-width:0.217894;stroke-linecap:round;stroke-linejoin:round;-inkscape-stroke:none"
     d="M 1.899049,3.285914 H 1.354315"
     id="path335" />
  <path
     style="color:#000000;fill:#000000;stroke-width:1.08947e-06;stroke-linecap:round;stroke-linejoin:round;-inkscape-stroke:none"
     d="M 1.354315,3.176968 A 0.10894681,0.10894681 0 0 0 1.245368,3.285914 0.10894681,0.10894681 0 0 0 1.354315,3.394861 H 1.899049 A 0.10894681,0.10894681 0 0 0 2.007996,3.285914 0.10894681,0.10894681 0 0 0 1.899049,3.176968 Z"
     id="path337" />
  <path
     style="color:#000000;fill:#000000;fill-opacity:0;stroke-width:0.217894;stroke-linecap:round;stroke-linejoin:round;-inkscape-stroke:none"
     d="M 2.116942,2.087499 1.790102,1.760659"
     id="path329" />
  <path
     style="color:#000000;fill:#000000;stroke-width:1.08947e-06;stroke-linecap:round;stroke-linejoin:round;-inkscape-stroke:none"
     d="m 1.790102,1.651712 a 0.10894681,0.10894681 0 0 0 -0.07704,0.03191 0.10894681,0.10894681 0 0 0 0,0.154074 l 0.32684,0.326841 a 0.10894681,0.10894681 0 0 0 0.154075,0 0.10894681,0.10894681 0 0 0 0,-0.154075 L 1.867136,1.683622 a 0.10894681,0.10894681 0 0 0 -0.07704,-0.03191 z"
     id="path331" />
  <path
     style="color:#000000;fill:#000000;fill-opacity:0;stroke-width:0.217894;stroke-linecap:round;stroke-linejoin:round;-inkscape-stroke:none"
     d="M 3.315357,1.869606 V 1.106978"
     id="path323" />
  <path
     style="color:#000000;fill:#000000;stroke-width:1.08947e-06;stroke-linecap:round;stroke-linejoin:round;-inkscape-stroke:none"
     d="M 3.315357,0.998031 A 0.10894681,0.10894681 0 0 0 3.206411,1.106978 V 1.869606 A 0.10894681,0.10894681 0 0 0 3.315357,1.978553 0.10894681,0.10894681 0 0 0 3.424304,1.869606 V 1.106978 A 0.10894681,0.10894681 0 0 0 3.315357,0.998031 Z"
     id="path325" />
  <path
     style="color:#000000;fill:#000000;fill-opacity:0;stroke-width:0.217894;stroke-linecap:round;stroke-linejoin:round;-inkscape-stroke:none"
     d="M 3.315357,4.702223 V 5.464851"
     id="path317" />
  <path
     style="color:#000000;fill:#000000;stroke-width:1.08947e-06;stroke-linecap:round;stroke-linejoin:round;-inkscape-stroke:none"
     d="M 3.315357,4.593276 A 0.10894681,0.10894681 0 0 0 3.206411,4.702223 V 5.464851 A 0.10894681,0.10894681 0 0 0 3.315357,5.573797 0.10894681,0.10894681 0 0 0 3.424304,5.464851 V 4.702223 A 0.10894681,0.10894681 0 0 0 3.315357,4.593276 Z"
     id="path319" />
  <path
     style="color:#000000;fill:#000000;fill-opacity:0;stroke-width:0.217894;stroke-linecap:round;stroke-linejoin:round;-inkscape-stroke:none"
     d="M 4.513772,4.484329 4.840613,4.81117"
     id="path311" />
  <path
     style="color:#000000;fill:#000000;stroke-width:1.08947e-06;stroke-linecap:round;stroke-linejoin:round;-inkscape-stroke:none"
     d="m 4.513772,4.375382 a 0.10894681,0.10894681 0 0 0 -0.07704,0.03191 0.10894681,0.10894681 0 0 0 0,0.154075 l 0.32684,0.32684 a 0.10894681,0.10894681 0 0 0 0.154075,0 0.10894681,0.10894681 0 0 0 0,-0.154075 l -0.32684,-0.32684 a 0.10894681,0.10894681 0 0 0 -0.07704,-0.03191 z"
     id="path313" />
  <path
     style="color:#000000;fill:#000000;fill-opacity:0;stroke-width:0.217894;stroke-linecap:round;stroke-linejoin:round;-inkscape-stroke:none"
     d="M 5.427944,3.285914 H 4.88321"
     id="path305" />
  <path
     style="color:#000000;fill:#000000;stroke-width:1.08947e-06;stroke-linecap:round;stroke-linejoin:round;-inkscape-stroke:none"
     d="M 4.88321,3.176968 A 0.10894681,0.10894681 0 0 0 4.774263,3.285914 0.10894681,0.10894681 0 0 0 4.88321,3.394861 H 5.427944 A 0.10894681,0.10894681 0 0 0 5.536891,3.285914 0.10894681,0.10894681 0 0 0 5.427944,3.176968 Z"
     id="path307" />
  <path
     style="color:#000000;fill:#000000;stroke-width:0.0846667;stroke-linecap:square;stroke-linejoin:round;-inkscape-stroke:none;paint-order:stroke fill markers"
     d="m 3.326388,2.237464 a 0.1000098,0.1000098 0 0 0 -0.09029,0.05474 L 2.975153,2.807149 2.402991,2.884209 A 0.1000098,0.1000098 0 0 0 2.345781,3.054204 L 2.755058,3.461497 2.651373,4.029525 A 0.1000098,0.1000098 0 0 0 2.795407,4.13635 L 3.309194,3.873089 3.81736,4.147098 A 0.1000098,0.1000098 0 0 0 3.963542,4.043249 L 3.871932,3.473237 4.289478,3.074709 A 0.1000098,0.1000098 0 0 0 4.235898,2.903556 L 3.665555,2.814426 3.415524,2.294189 a 0.1000098,0.1000098 0 0 0 -0.08913,-0.05672 z m -0.0035,0.325769 0.185043,0.385299 a 0.1000098,0.1000098 0 0 0 0.07474,0.0554 l 0.422177,0.06598 -0.309067,0.295011 a 0.1000098,0.1000098 0 0 0 -0.02977,0.08814 l 0.0678,0.421845 -0.37604,-0.202737 A 0.1000098,0.1000098 0 0 0 3.264671,3.67118 L 2.884499,3.865979 2.961059,3.445623 a 0.1000098,0.1000098 0 0 0 -0.02778,-0.0888 L 2.630496,3.05553 3.053995,2.99848 a 0.1000098,0.1000098 0 0 0 0.07574,-0.05391 z"
     id="path299" />
  <path
     style="color:#000000;fill:#000000;stroke-width:0.199999;stroke-linecap:square;stroke-linejoin:round;-inkscape-stroke:none;paint-order:stroke fill markers"
     d="M 4.220502,3.002306 3.76485,3.437207 3.8648,4.059112 3.310381,3.760155 2.7498,4.047388 2.8628,3.427723 2.416395,2.983336 3.040652,2.899316 3.325341,2.337437 3.598152,2.905178 Z"
     id="path301" />
</svg>
